<?xml version="1.0" encoding="UTF-8"?>
<svg id="Layer_1" xmlns="http://www.w3.org/2000/svg" version="1.1" viewBox="0 0 1024 1024">
  <!-- Generator: Adobe Illustrator 29.1.0, SVG Export Plug-In . SVG Version: 2.1.0 Build 142)  -->
  <defs>
    <style>
      .st0, .st1 {
        fill: #32494d;
        stroke: #32494d;
      }

      .st0, .st1, .st2, .st3, .st4 {
        stroke-width: .2px;
      }

      .st1 {
        display: none;
      }

      .st2 {
        fill: #1f272f;
        stroke: #1f272f;
      }

      .st3 {
        fill: #fdedd0;
        stroke: #fdedd0;
      }

      .st4 {
        fill: #ecad80;
        stroke: #ecad80;
      }
    </style>
  </defs>
  <path class="st1" d="M0,0h1024v1024H0V0Z"/>
  <path class="st4" d="M460.2,159.5c25.3-4.1,51.2-6,76.8-4.1,43.8,2.8,87.1,14.3,126.3,34.2,29.6,14.8,56.9,34.2,80.9,57,26.7,25.4,49.7,55.1,66,88.2-4.1-2.7-8.4-5.5-13.3-6.8-3.9-1-8,0-11.9-.5-3.9-1.1-7.1-4-11.1-4.7-2.4,0-4.6.8-7,1-1.7-1.3-3.1-3.1-5-4.2-1.4.3-2.8.7-4.2,1.1-.9-.7-1.9-1.4-2.8-2-1.6.2-3.2.6-4.9.7-2.9-2.4-4.4-6.1-7.5-8.3-3.7-1.4-6.9,1.2-9.8,3.1-4.8-5.9-8.6-12.7-14.4-17.6-2.7-2.3-6.4-2.2-9.5-3.4-3.3-1.1-5.8-3.9-9-5.3-7.3.9-11.3,7.6-15.1,13-6,8.7-15.8,14-20.8,23.5-5.8-14.4-12.2-28.6-21-41.4-20.2-29.8-50.1-52.9-83.9-65.1-46.8-17.1-100.4-13.9-145.1,8.2-28.8,14-53.3,36.3-71.1,62.8-16.7,24.7-26.2,54-28.3,83.6-.4,5.8-.4,11.7-.7,17.6-6.4-.2-10.6,5.2-14.9,9.1-5.4,5.1-13.1,6.4-18.6,11.2-11.5,10.4-18.4,24.9-30.3,34.8-2.5,2.5-6.1,1.6-9.3,1.5-2.3-.3-4.2,1-6.2,1.9-5.4,2.8-11.8-.9-17.3,1.4-9.4,4.2-13.7,14.8-22.8,19.5-2.4,1.3-5,2.4-7.5,3.4,3.7-84.2,40-166.7,100.5-225.4,47.1-45.6,108-77.1,172.7-88.1Z"/>
  <path class="st3" d="M414.1,226c44.6-22,98.3-25.2,145.1-8.2,33.8,12.3,63.7,35.3,83.9,65.1,8.9,12.8,15.2,27,21,41.4-1.7,1.4-3.5,3.1-5.8,3.1-3.5-.7-6.7-2.8-10.3-3.1-4.1.8-6,5.2-9.6,6.9-2.5,1.6-5.4-1.3-7.8,0-4.2,2.1-8.4,6.1-13.5,4.6-5.2-.9-10.4.9-15.3,2.6-5,1.7-9,6.8-14.8,5.2-6.5-1.5-13.2-.6-19.4,1.8,33.4.2,66.8.1,100.2,0,8.3,34.2,5.6,71-7.3,103.7-6.8-3.4-13.5-7.2-20.5-10.1-.2-13.5-.2-27.1-.4-40.6,0-3-.2-6-.4-9,2.6-.8,5.2-1.8,7.8-2.8-9.5-9.9-20.5-18.2-30.7-27.4-9.4,7.6-18.6,15.6-28.7,22.2.9,2.7,2.5,5.1,4.6,6.9.2,14.5,0,28.9.1,43.4-11.4-2.2-22.9-4.3-34.3-6.6-3.9-.8-8.4-1.1-11.1-4.4-9.3-9.8-18.7-19.5-26.5-30.6-2.7-3.6-6.8-6-8.8-10-2.8-5.4-5.8-10.7-10-15-1.2-1.3-3.1-1.7-4.7-2-11.9-1.8-20.8-10.6-30.9-16.5-1.8,0-4,1.3-5.4-.4-9.3-9.3-14.4-22.1-24.9-30.3-5.1-3.9-9.8-8.3-15.5-11.3-3.8-2-7.6.8-11.1,2.2-4.4,1.7-6.3,6.3-9.5,9.4-3.1,3.1-7.7,3.5-11.1,5.9-4.7,3.3-8.3,7.9-11.1,12.8-2.8,4.5-4.8,9.6-8.9,13.1-7.6,6.7-10,17.7-18.6,23.4-3.4,3.2-9.1,2-12.1,5.9-3.9,4.5-6.1,10.9-11.8,13.6-4,1-8-.6-11.9-1.2.3-5.9.4-11.7.7-17.6,2-29.7,11.6-58.9,28.3-83.6,17.8-26.5,42.3-48.8,71.1-62.8Z"/>
  <path class="st2" d="M409.1,307.2c3.4-1.5,7.3-4.2,11.1-2.2,5.7,3,10.4,7.4,15.5,11.3,10.5,8.2,15.6,21,24.9,30.3,1.4,1.7,3.6.5,5.4.4,10,5.8,18.9,14.7,30.9,16.5,1.7.4,3.5.7,4.7,2,4.2,4.3,7.3,9.7,10,15,2.1,4.1,6.2,6.5,8.8,10,7.8,11,17.2,20.8,26.5,30.6,2.7,3.3,7.2,3.6,11.1,4.4,11.4,2.3,22.8,4.4,34.3,6.6,0-14.4.1-28.9-.1-43.4-2.2-1.9-3.7-4.3-4.6-6.9,10.1-6.6,19.3-14.6,28.7-22.2,10.2,9.2,21.2,17.5,30.7,27.4-2.6,1-5.1,2-7.8,2.8.2,3,.4,6,.4,9-.4,1.6-.8,3.3-1.2,4.9-.4-3.6-.6-7.2-.9-10.8,0,15.5,0,31,0,46.5.8,0,1.7,0,2.5,0,7,2.9,13.7,6.6,20.5,10.1,49.9,25.9,99.8,51.9,149.9,77.4,1.7.7,2.4,2.5,3.3,3.9-7.8.7-15.7.3-23.5.3.2,9.7,0,19.3,0,29-.4,3,2.4,4.6,4.2,6.4,6.9,6.6,13.9,13.1,20.8,19.5,8.4-10.8,17.1-21.3,24.8-32.6-3.1,11.9-5.8,23.9-10.1,35.5-9.8,28-23.1,54.6-39.9,79-10.2,14.9-21.4,29.1-34.2,41.8-12.4-6.2-25.5-11.2-39-14.6-10-2.5-20-4.9-30-7.4-11.3-2.8-21.8-7.7-32.5-12.2-5.7-2.7-12.2-4-16.7-8.6-2.8.3-5.6.7-8.4,1.1,7.5,5,16.2,7.6,24.4,11.3,10.4,4.6,21.4,8.1,31.3,13.8,10.8,6.1,22.8,9.7,33.9,15,7.5,3.4,14.7,7.3,22.1,10.9,1.1.7,2.5,1.1,3.1,2.4-3.9,4.3-8.5,7.9-12.9,11.7-49.8,42.3-112.2,69.6-177.2,76.9-75.8,8.9-154.7-8.5-218.9-50-17-11.1-33.1-23.4-47.8-37.4-5.6-5.5-11.6-10.8-16.4-17.1,10.7-5.5,21.4-10.8,32.5-15.2,5.6-2.2,11.1-4.6,16.4-7.5,16.1-8.8,33.6-14.8,49.9-23.2,11-5.8,22.5-10.7,33.5-16.4,2.4-1.2,4.6-2.8,6.8-4.5-15.5,2.7-28.6,11.8-42.6,18.3-10.5,5-21.1,10-32,14.1-10.1,4-20.7,6.1-31.2,8.5-14.8,3.6-29.5,7.7-43,14.8-13.4-15-24.4-31.9-34.2-49.4-7-12.2-12.3-25.2-17.9-38,15.1.2,30.2-.5,45.2-.6,0,4.1.1,8.2,0,12.3,1.6,0,3.3,0,4.9,0,0-3.9,0-7.9,0-11.8,18.4-.2,36.7.3,55.1.3,0-1.3-.1-2.6-.2-3.9-18.5-.3-37,0-55.5-.2,0-3.6.2-7.1.2-10.7,18.6-.1,37.2,1.4,55.8,1.2,0-1.5,0-3.1,0-4.6-18.6-.4-37.2,0-55.8-.5,0-1.9,0-3.7,0-5.5-1.4,0-2.8,0-4.2,0,0,1.9,0,3.8,0,5.7-17.3-.2-34.6,0-51.9.2-7.7-21.9-12.1-44.8-14.4-67.8-1.8-16-1.7-32.1-1.3-48.1,2.5-1.1,5.1-2.1,7.5-3.4,9.1-4.7,13.3-15.3,22.8-19.5,5.6-2.3,11.9,1.4,17.3-1.4,2-.9,3.9-2.2,6.2-1.9,3.1,0,6.8.9,9.3-1.5,11.9-10,18.8-24.5,30.3-34.8,5.6-4.8,13.3-6.1,18.6-11.2,4.2-4,8.4-9.4,14.9-9.1,3.9.6,7.9,2.2,11.9,1.2,5.7-2.7,7.9-9.1,11.8-13.6,3-3.8,8.7-2.7,12.1-5.9,8.6-5.7,11-16.7,18.6-23.4,4-3.6,6.1-8.6,8.9-13.1,2.9-4.9,6.4-9.5,11.1-12.8,3.5-2.5,8.1-2.9,11.1-5.9,3.2-3.1,5.1-7.7,9.5-9.4Z"/>
  <path class="st4" d="M667.7,345.8c49.5-.3,99-.2,148.5,0,26,55.8,36.7,119,29.1,180.2-1.4,9.2-2.4,18.6-5.2,27.6-7.7,11.3-16.4,21.8-24.8,32.6-7-6.5-13.9-13-20.8-19.5-1.8-1.8-4.6-3.5-4.2-6.4-.1-9.7,0-19.3,0-29,7.8,0,15.7.4,23.5-.3-.9-1.4-1.6-3.2-3.3-3.9-50.1-25.5-100-51.4-149.9-77.4,13-32.7,15.7-69.5,7.3-103.7Z"/>
  <path class="st0" d="M637.4,392.9c.2,3.6.5,7.2.9,10.8.4-1.6.8-3.3,1.2-4.9.3,13.5.2,27.1.4,40.6-.8,0-1.7,0-2.5,0,0-15.5,0-31,0-46.5Z"/>
  <path class="st0" d="M392.9,502.1c39.6-35.8,78.8-72,118.2-108,14.2,13.8,29.1,26.8,43.4,40.4,10.4,9.2,20.8,18.6,31.1,27.9,16.3,14,31.9,28.9,48.5,42.5,3.8,2.8,6.6,8,11.9,8.1,9.7,1.1,19.3,3.3,28.9,4.7,1.9.4,4,.5,5.6,1.7,1.1,1.6,1.9,3.5,2.7,5.2-10.9-.8-21.5-3.5-32.3-5-10.4-1.1-20.3-4.6-30.5-6.4.6-1.8.2-4.2,1.7-5.6,1.8-.4,3.7-.3,5.5-.3-8.5-8.5-17.9-16.1-26.6-24.4-30.1-26.2-59.4-53.4-89.6-79.5-13.2,11.1-25.6,23.1-38.3,34.6-23.7,21.6-46.9,43.7-70.6,65.3-5.7,5.1-11,10.7-17.3,15.1,0-3.1-.6-6.3.4-9.3,1.9-2.9,4.9-4.9,7.4-7.2Z"/>
  <path class="st0" d="M613.5,449.8c7.1,5,13.4,10.9,20.1,16.4,15,12.3,29.6,25.3,44.5,37.7,7.1,6.4,14.7,12.3,21.5,19-3.9,0-8.5,1.1-11.8-1.8-4.5-3.7-8.6-7.9-13-11.8-17.1-16.2-34.6-32.1-51.5-48.6-3.6-3.4-7.4-6.7-9.9-11Z"/>
  <path class="st3" d="M432.9,500.5c22.5-.2,45,0,67.5-.1,0,10.6.2,21.2,0,31.8-22.5,0-45,0-67.5,0-.2-10.6,0-21.1,0-31.7Z"/>
  <path class="st3" d="M525.8,500.3c22.6.1,45.2,0,67.8,0,0,10.6,0,21.3,0,31.9-22.6,0-45.2-.1-67.8,0-.2-10.6-.1-21.3,0-31.9Z"/>
  <path class="st3" d="M331.1,537c27-2.2,54-5.5,81-7.5.1,5.2.1,10.5,0,15.7-29.6,0-59.1-.7-88.7-1.2.7,25.6,1,51.2.6,76.8-2,0-4-.1-6-.2-.6-25.8-.1-51.6-.6-77.3-6.7,0-13.4.3-20-.4,0-.6,0-1.9,0-2.5,11.2-.9,22.4-2.6,33.6-3.3Z"/>
  <path class="st3" d="M701.5,539.7c8.1,0,16.2-.2,24.3,0,0,11.3,0,22.6,0,33.9-8.1-.2-16.1-.4-24.2,0-.2-11.3,0-22.5,0-33.8Z"/>
  <path class="st3" d="M730.5,573.4c-.2-11.2-.3-22.4-.1-33.6,8.1,0,16.2,0,24.4,0,0,11.3,0,22.6,0,33.9-8.1-.4-16.2-.2-24.4-.2Z"/>
  <path class="st3" d="M429.5,557.5c11-.2,21.9,0,32.9,0-.1,7.5.3,15.1-.2,22.6-10.9,0-21.8,0-32.7,0-.2-7.5-.1-15,0-22.5Z"/>
  <path class="st3" d="M467.5,557.5c10.9,0,21.9,0,32.8,0,0,7.5,0,15.1,0,22.6-10.9,0-21.8.1-32.8-.1,0-7.5,0-15,0-22.5Z"/>
  <path class="st3" d="M527.2,557.6c10.7-.2,21.4-.2,32.1-.2,0,7.6.2,15.2.2,22.7-10.8,0-21.5,0-32.3,0,0-7.5,0-15,0-22.5Z"/>
  <path class="st3" d="M563.1,557.5c11.1,0,22.3,0,33.4,0,0,7.6,0,15.1-.1,22.7-11.1-.1-22.1.1-33.2,0-.2-7.5,0-15,0-22.6Z"/>
  <path class="st3" d="M254.7,583.1c1.4,0,2.8,0,4.2,0,0,1.8,0,3.7,0,5.5,18.6.5,37.2.1,55.8.5,0,1.5,0,3.1,0,4.6-18.6.2-37.2-1.4-55.8-1.2,0,3.6-.1,7.1-.2,10.7,18.5.3,37,0,55.5.2,0,1.3.1,2.6.2,3.9-18.4,0-36.7-.4-55.1-.3,0,3.9,0,7.8,0,11.8-1.6,0-3.3,0-4.9,0,.1-4.1,0-8.2,0-12.3-15.1,0-30.2.7-45.2.6-.4-1.3-.9-2.6-1.3-3.9,15.6,0,31.3-.3,47-.1.2-3.7.3-7.3.4-11-17.1.6-34.1.7-51.2.4-.3-1.2-.7-2.5-1.1-3.7,17.3-.2,34.6-.4,51.9-.2,0-1.9,0-3.8,0-5.7Z"/>
  <path class="st3" d="M351.4,583.1c1.5,0,3.1,0,4.6.1,0,1.9,0,3.9.1,5.8,19.4.3,38.9.3,58.4.5,0,1.2.1,2.5.2,3.7-19.5.8-39,.1-58.5.4,0,3.3-.2,6.6.1,9.9,19.1.6,38.3.5,57.5.9.1,1,.3,2.1.4,3.1-19.3,0-38.5-.1-57.8-.4,0,4-.1,8.1-.2,12.1-1.6,0-3.3,0-4.9.1,0-4.1,0-8.2-.2-12.3-7.9-.4-15.9-.1-23.9-.4,0-1.2,0-2.5,0-3.7,8-.3,15.9.1,23.9.2,0-3.3.1-6.5.1-9.8-8.3,0-16.6.2-24.8.2,0-1.5.1-3,.2-4.4,8.2-.5,16.4-.2,24.5-.2,0-2,.1-3.9.2-5.9Z"/>
  <path class="st3" d="M429.6,585.3c10.9-.1,21.8,0,32.7,0,0,7.8-.1,15.7,0,23.5-10.9-.2-21.8,0-32.7,0-.2-7.8-.1-15.6-.1-23.4Z"/>
  <path class="st3" d="M467.5,585.2c10.9.1,21.8,0,32.7,0,0,7.8,0,15.6.2,23.4-11,.2-21.9.2-32.9,0,0-7.8,0-15.6,0-23.4Z"/>
  <path class="st3" d="M527.1,585.3c10.7-.2,21.4,0,32.1-.1.2,7.8,0,15.6.1,23.5-10.7,0-21.5,0-32.2,0,0-7.8.1-15.6,0-23.3Z"/>
  <path class="st3" d="M563.2,585.2c11,0,22.1.1,33.2,0,.1,7.8,0,15.7,0,23.5-11.1,0-22.1.1-33.2,0-.2-7.8,0-15.6,0-23.4Z"/>
  <path class="st2" d="M203.8,592.6c17.1.3,34.1.2,51.2-.4-.1,3.7-.3,7.4-.4,11-15.6-.2-31.3,0-47,.1-1.4-3.5-2.7-7.1-3.8-10.8Z"/>
  <path class="st0" d="M282.3,634.2c5-4.1,11.9-6.2,18.4-5-4.1,2.5-8.9,3.2-13.2,5.1-3.7,1.3-4.1,5.7-5.5,8.8-1.3-2.8-2.3-6.5.4-8.9Z"/>
  <path class="st0" d="M699.2,632.2c3.2-1.5,6.8-1.7,10.2-2.3-.4,2.7-.9,5.3-1.3,8,7.3,4.2,16.3,7.5,19.3,16.2-5.4-3.8-10.1-8.6-16.4-10.8-4.2-1.6-8.9-2.1-12.8-4.5-.9-2-1.4-5.5,1-6.6Z"/>
  <path class="st0" d="M352,635.8c7.2-1.2,14.5-2.5,21.8-1.9-3.7,2.1-7.9,3.1-12.1,3.8-7.2,1.1-14.4,3.4-21.8,2.4,3.4-2.9,7.9-3.4,12.1-4.2Z"/>
  <path class="st0" d="M726.2,634.3c1.8,2.2,2.9,4.9,4.3,7.3,1.7,1.8,4,2.9,5.8,4.5,0,2.7-.5,5.4-1,8.1-7.4-3.4-10.6-12.2-9.1-19.9Z"/>
  <path class="st0" d="M303.1,643.1c8.7,0,17.3-1.7,25.9-2.3-4.5,4.3-10.4,6.2-16.1,8.3-4.7,1.7-9.3,3.5-14,5.1,1.3-3.7,2.8-7.4,4.2-11.1Z"/>
  <path class="st0" d="M627.7,643.8c5.8-1.7,11.9-.3,17.7.7,4.6,1,9.4,1.5,14,2.8.2,1.6-1,2.8-2.5,2.9-4.3.6-8.6-.4-12.8-1.4-5.5-1.4-11.3-2.4-16.5-4.9Z"/>
  <path class="st0" d="M665.5,648.4c3.8,1,7.5,2.5,11.3,3.8,8.8,3,18.2,2.7,27.3,4,1.7,0,2.2,1.7,2.9,2.9,1.4,3,2.4,6.2,3.5,9.4-7.4-2.7-14.8-5.5-22-8.8-4.9-2.1-10.2-3-15.3-4.4,2,3.4,5.5,5.3,9,7h-4c3.4,1.7,6.7,3.8,9.8,6-5.4-.6-11.6-.6-16.1-4.1-3.3-4.7-4.6-10.4-6.3-15.8Z"/>
  <path class="st0" d="M602,649.7c4.9.9,9.5,2.9,13.6,5.6,4.5,3,9.7,5,14.4,7.7-2,.6-3.9,1.2-5.8,1.8,1,.9,1.9,1.8,2.9,2.7-5.6-.1-10.9-2.3-15.4-5.6.4-1.3.8-2.6,1.2-3.9-3.7-2.6-8.2-4.5-10.8-8.3Z"/>
  <path class="st0" d="M550.9,654.5c7.8.7,15,3.9,22.5,5.8,5.1,1.7,10.9,2.5,15.2,6.1,5.5,5.3,14,4.6,20,9.3-6.6,0-13-2.2-19.4-3.4-5.6-1.2-11.5-1.3-16.8-3.7,2.7-.5,5.4-.9,8.1-1.4-4.4-3-9.8-3.3-14.6-5.1-5.2-2.1-10.6-4.1-15.1-7.6Z"/>
  <path class="st0" d="M428.1,661.8c5.8-.8,11.3-3.3,17.2-3.6-6.4,4.6-14.5,4.9-21.6,7.6,2.4.5,4.7,1,7,1.5-5.6,2.5-11.7,3.5-17.7,4.6-6.5,1-12.9,2.6-19.5,2.5,7-5.9,17.9-3.1,24.7-9.4,2.7-2.4,6.5-2.5,9.9-3.2Z"/>
  <path class="st0" d="M684.5,663.2c1.2-.9,3.4-.5,4.2.8-.4,1.8-4.4.9-4.2-.8Z"/>
  <path class="st0" d="M430.6,684.1c1.9-1.8,4.2-2.9,6.8-3.2-2.1,1.3-4.4,2.4-6.8,3.2Z"/>
  <path class="st0" d="M380.4,691c5.5,2,10.4,5.3,15.8,7.7,7.5,3.5,14.6,7.8,22.3,10.8,9.5,4.1,19.4,6.8,29.3,9.6,11.7,3.3,23,8,34.1,12.8,8.5,3.4,17.6,7.2,27,5.6,7.6-1.6,14.9-4.6,22-7.6,8.7-3.4,17.6-6.1,26.7-8.5,15.8-4.6,31.2-10.7,45.7-18.4,5.4-2.7,10.6-5.9,16.5-7.5-3.2,5.3-8.8,8.4-14.2,11-7.6,3.8-16.2,5.7-23.2,10.7-12.6,8.4-28.1,10.2-41.7,16.2-10.2,4.3-19.7,10.5-30.5,13.4-3.9,1.1-8,1.5-11.9.5-13.5-3.3-24.8-11.7-37.6-16.8-13.5-5.9-28.7-7.8-41.4-15.7-8.7-5.6-18.2-9.7-27.2-14.9-4.2-2.5-8.7-4.9-11.6-9Z"/>
  <path class="st0" d="M463.8,695.5c7.1-.8,14.1-2.5,21.2-2.7-6.1,4.6-14.2,3.4-21.2,2.7Z"/>
  <path class="st0" d="M520.8,692.8c2.2.9,5.2.9,6.5,3.2,1.1,1.6-1.7,2-2.5,1.3-1.7-1.2-2.7-2.9-4-4.5Z"/>
  <path class="st0" d="M492.1,700.5c5.1.2,9.7,2.6,12.8,6.6-5.3.5-9.5-3-12.8-6.6Z"/>
  <path class="st0" d="M459.4,706.8c4.4.3,9.5,1.3,11.2,6-3.9-1.7-7.6-3.8-11.2-6Z"/>
  <path class="st0" d="M536.1,714.4c3.4-4.9,10-5,15.4-5.3-4.8,2.5-10,4.2-15.4,5.3Z"/>
  <path class="st0" d="M375.2,748.1c7.3-3,12.4-9.4,19.6-12.7-4.4,8-13.2,12.1-21.3,15.2-3.3,1.1-6.7,3.3-10.3,2.2-1.8-.8-3.1-2.2-4.6-3.4,5.5-.5,11.2,0,16.6-1.3Z"/>
  <path class="st0" d="M606.1,742.5c6.8,2.9,11.5,9,18.2,12.1,5.5,2.9,11.6,4,17.6,5.5,3,.4,3.1,4,4.2,6.2-7.2-2.5-14.5-5.2-21.2-8.9-7-3.7-14.9-7.5-18.8-14.9Z"/>
</svg>